# xmcd CD database file generated by Grip 3.0.6
# 
# Track frame offsets:
#       182
#       20775
#       33680
#       49552
#       63000
#       80782
#       98087
#       112037
#       135202
#       141585
# 
# Disc length: 2146 seconds
# 
# Revision: 4
# Processed by: cddbd v1.4PL0 Copyright (c) Steve Scherf et al.
# Submitted via: Grip 3.0.6
# 
DISCID=8908600a
DTITLE=Taj Mahal - Shake Sugaree
DYEAR=1992
DGENRE=Blues
TTITLE0=Fishin' Blues
TTITLE1=Brown Girl In The Ring
TTITLE2=Light Rain
TTITLE3=Quavi, Quavi
TTITLE4=Shake Sugaree
TTITLE5=Funky Bluesy ABC's
TTITLE6=Talkin' John Henry
TTITLE7=Railroad Bill
TTITLE8=A Soulful Tune
TTITLE9=Little Brown Dog
EXTD=Taj Mahal Sings and Plays for Children
EXTT0=
EXTT1=
EXTT2=
EXTT3=
EXTT4=
EXTT5=
EXTT6=
EXTT7=
EXTT8=
EXTT9=
PLAYORDER=
